inDegrees=yes
name=ik_S52_A06_T05
DataType=double
version=3
OpenSimVersion=4.3-2021-08-27-4bc7ad9
endheader
time	pelvis_tilt	pelvis_list	pelvis_rotation	pelvis_tx	pelvis_ty	pelvis_tz	hip_flexion_r	hip_adduction_r	hip_rotation_r	knee_angle_r	knee_angle_r_beta	ankle_angle_r	subtalar_angle_r	mtp_angle_r	hip_flexion_l	hip_adduction_l	hip_rotation_l	knee_angle_l	knee_angle_l_beta	ankle_angle_l	subtalar_angle_l	mtp_angle_l	lumbar_extension	lumbar_bending	lumbar_rotation	arm_flex_r	arm_add_r	arm_rot_r	elbow_flex_r	pro_sup_r	wrist_flex_r	wrist_dev_r	arm_flex_l	arm_add_l	arm_rot_l	elbow_flex_l	pro_sup_l	wrist_flex_l	wrist_dev_l
0	0	0	0	0	0.9399999999999999	0	0	0	0	0	0	0	0	0	0	0	0	0	0	0	0	0	0	0	0	0	0	0	0	89.99999999963507	0	0	0	0	0	0	89.99999999869995	0	0
0.02	-4.848207225795467	0.896404199191364	20.80662797647656	0	0.9399999999999999	0	3.466546759315957	-1.619141418753822	-1.166885235365447	5.346817020527348	0.09331956150987546	0	0	0	3.466546759315957	-1.619141418753822	-1.166885235365447	5.346817020527348	0.09331956150987546	0	0	0	-1.447659710812752	-2.910431713796942	2.632713523634192	28.98755534107166	-10.31083882657831	-14.07840802479793	38.51567613703796	151.1662016567577	0	0	28.61685628760397	-8.740415858205409	-13.68010935184335	41.87752456027992	122.0612503353863	0	0
0.04	-4.817268262611617	0.9105811751121253	20.82165549757736	0	0.9399999999999999	0	3.714973728229935	-1.765756552991905	-1.254700861602684	5.71583433654397	0.09976012867123792	0	0	0	3.714973728229935	-1.765756552991905	-1.254700861602684	5.71583433654397	0.09976012867123792	0	0	0	-1.418800763663582	-2.897898920581119	2.624699069611368	28.91896781200667	-10.30844360047153	-14.06010698105994	38.52920091252807	151.1139022747463	0	0	28.54674522802041	-8.71947102174026	-13.72014948284549	41.87753670296089	122.0554818760146	0	0
0.06	-3.687586725730712	-0.6151939922226568	22.33977474686107	0	0.9399999999999999	0	43.80338600038435	-11.13194169831742	-10.87902732145469	54.13975673254104	0.9449170112116083	0	0	0	43.80338600038435	-11.13194169831742	-10.87902732145469	54.13975673254104	0.9449170112116083	0	0	0	-1.929888517027305	-1.031666399270786	1.158031921713198	28.89926845994157	-10.31358263711773	-14.04424362410557	38.52743695724214	151.1371609610407	0	0	28.51360019945562	-8.730900119855875	-13.73481907845228	41.89285425405969	122.0889696619912	0	0
0.08	-3.702739314765239	-0.6254006793543851	22.33946655746168	0	0.9399999999999999	0	43.80463581303812	-11.12722168799787	-10.87680485486538	54.1403425841661	0.9449272362513936	0	0	0	43.80463581303812	-11.12722168799787	-10.87680485486538	54.1403425841661	0.9449272362513936	0	0	0	-1.949001911571021	-1.034065405407647	1.158787582666239	28.91192755487095	-10.32086579440675	-14.05001947452379	38.56581935087896	151.0523717769213	0	0	28.53460717646087	-8.746906854805635	-13.73667441113698	41.92919571282922	122.0618419050001	0	0
0.1	-3.712066189731412	-0.6314526391006215	22.32619076909123	0	0.9399999999999999	0	43.80534810574191	-11.12499944676316	-10.87567896639809	54.14069039175813	0.944933306639038	0	0	0	43.80534810574191	-11.12499944676316	-10.87567896639809	54.14069039175813	0.944933306639038	0	0	0	-1.960699191814559	-1.035204960893334	1.155510672545201	28.92118965592787	-10.32667720261058	-14.06183184719726	38.57867201184248	151.048454679811	0	0	28.56071742608052	-8.742528808218061	-13.7328069717707	41.94098459856293	122.0504063356009	0	0
0.12	-3.713265270898709	-0.6306420781609916	22.32380381739216	0	0.9399999999999999	0	43.80487926538659	-11.12705853556078	-10.87660518022576	54.14048393036955	0.944929703208029	0	0	0	43.80487926538659	-11.12705853556078	-10.87660518022576	54.14048393036955	0.944929703208029	0	0	0	-1.960834402594305	-1.035225049931149	1.174783774268	28.93902043025221	-10.30853802406083	-14.08278587599162	38.53375536596978	151.1801253704407	0	0	28.57584050740205	-8.699787971494374	-13.68992039515183	41.89483837328019	122.0671901101126	0	0
0.14	-3.699006588080317	-0.6327283424105221	22.32923382460233	0	0.9399999999999999	0	43.80698819970118	-11.12025671617165	-10.87318670814076	54.14150494245811	0.9449475232306771	0	0	0	43.80698819970118	-11.12025671617165	-10.87318670814076	54.14150494245811	0.9449475232306771	0	0	0	-1.950563024129983	-1.040098439962973	1.169338600497004	28.91970078391887	-10.32103944016094	-14.02787175115627	38.58861341236352	151.0544692654919	0	0	28.57545112072063	-8.710068897900703	-13.65101654724153	41.94525753037804	122.0196171444272	0	0
0.16	-3.701340341928388	-0.6333025424860081	22.34050646345939	0	0.9399999999999999	0	43.80775022292689	-11.11750706468479	-10.87187335315915	54.14186638814333	0.9449538316479513	0	0	0	43.80775022292689	-11.11750706468479	-10.87187335315915	54.14186638814333	0.9449538316479513	0	0	0	-1.953658193673424	-1.039053373860487	1.171898546806288	28.90977013204302	-10.33295007453629	-14.02415325776964	38.60077423265577	151.0183617502657	0	0	28.56381628004609	-8.72951458229779	-13.66166492814871	41.95562831406878	122.0070896926234	0	0
0.18	-3.698036722585871	-0.6462182692250961	22.34336523766871	0	0.9399999999999999	0	43.80666129875665	-11.12128152829189	-10.87372607507396	54.14135222026929	0.9449448577256413	0	0	0	43.80666129875665	-11.12128152829189	-10.87372607507396	54.14135222026929	0.9449448577256413	0	0	0	-1.954649421646114	-1.052626939342867	1.152359765552021	28.92235520952665	-10.29449802632459	-14.0679512888859	38.53242188685277	151.1542800064883	0	0	28.56463013185013	-8.75809670613344	-13.73108490819788	41.89868748898746	122.0624830395837	0	0
0.2	-3.708932997706551	-0.6533335818795358	22.34903180641007	0	0.9399999999999999	0	43.80823810829737	-11.11548486624045	-10.87096130422957	54.14209403887689	0.9449578049027966	0	0	0	43.80823810829737	-11.11548486624045	-10.87096130422957	54.14209403887689	0.9449578049027966	0	0	0	-1.969001662953497	-1.053324875022668	1.149982184333044	28.92917218821702	-10.30406103935539	-14.0531513389182	38.57677501914723	151.0470301206288	0	0	28.57777402616214	-8.773018429261075	-13.71749654463845	41.94313268639942	122.0226822510103	0	0
0.22	-3.704803549540094	-0.6502717247091342	22.3346084049525	0	0.9399999999999999	0	43.80780473722223	-11.116928946221	-10.87168752227587	54.14188959220701	0.9449542366352623	0	0	0	43.80780473722223	-11.116928946221	-10.87168752227587	54.14188959220701	0.9449542366352623	0	0	0	-1.963590550225073	-1.052531985097439	1.150144693831174	28.91323677798821	-10.30138398180445	-14.07407130213968	38.54881763249661	151.1123765252053	0	0	28.58802745517304	-8.756867931836844	-13.74680833832335	41.91754614029698	122.0314279095319	0	0
0.24	-3.684939956295241	-0.637976076845116	22.32206109988457	0	0.9399999999999999	0	43.80928195121675	-11.1136918510385	-10.86974232456668	54.14265059247159	0.9449675185954878	0	0	0	43.80928195121675	-11.1136918510385	-10.86974232456668	54.14265059247159	0.9449675185954878	0	0	0	-1.941982706629527	-1.047475220233567	1.160489974172127	28.87603250864152	-10.30391850732836	-14.01717164779228	38.55383040993789	151.118506267332	0	0	28.54732381847935	-8.754454763260435	-13.6752662938947	41.92438938581962	121.9890656654643	0	0
0.26	-3.692597651910617	-0.6518661584874423	22.34042905611307	0	0.9399999999999999	0	43.81159753734241	-11.10636238168878	-10.8660304444466	54.14377375110692	0.9449871214116965	0	0	0	43.81159753734241	-11.10636238168878	-10.8660304444466	54.14377375110692	0.9449871214116965	0	0	0	-1.956635479615551	-1.055006445334826	1.161874220946485	28.87923129892175	-10.32633028419908	-14.00067555576092	38.60921604669232	151.0032563934647	0	0	28.5748834652064	-8.783905856162038	-13.6690421872872	41.99199995702893	121.9508855598723	0	0
0.28	-3.705838313061948	-0.6573311562320784	22.35472891215398	0	0.9399999999999999	0	43.81054651732389	-11.10916774398523	-10.86758011536122	54.14325400275875	0.9449780500917391	0	0	0	43.81054651732389	-11.10916774398523	-10.86758011536122	54.14325400275875	0.9449780500917391	0	0	0	-1.969926744161098	-1.056059055982465	1.15972772189444	28.88571276233028	-10.31564397951458	-14.0366736935934	38.57170571761857	151.0836682465336	0	-5.38806921148701e-36	28.58112453361317	-8.800459177915728	-13.71437608506188	41.97250321622228	121.989171061297	0	-5.38806921148701e-36
0.3	-3.711471438753049	-0.661667566151215	22.34001901579034	0	0.9399999999999999	0	43.81264261699381	-11.10282063906926	-10.86430217101466	54.14427883425002	0.9449959367755399	0	0	0	43.81264261699381	-11.10282063906926	-10.86430217101466	54.14427883425002	0.9449959367755399	0	0	0	-1.978879012762649	-1.055645972356223	1.158750691807254	28.88480235295187	-10.33286784482057	-14.01915185100566	38.62426081264419	151.0027407665003	0	0	28.60109105127067	-8.831709638165751	-13.68897925890254	42.05326973700737	121.9490758401014	0	0
0.32	-3.714412720986429	-0.6642797049782512	22.34586418560984	0	0.9399999999999999	0	43.81375702140943	-11.10077649359416	-10.8629529486975	54.14486388655531	0.9450061478645636	0	0	0	43.81375702140943	-11.10077649359416	-10.8629529486975	54.14486388655531	0.9450061478645636	0	0	0	-1.983823524821726	-1.055686121868685	1.159847904558986	28.88213382933754	-10.30823479348357	-14.03296030891162	38.5978098446389	151.096176874056	0	0	28.55775698284859	-8.907705851439527	-13.63205027704231	42.19305726095563	121.8673500422922	0	0
